<svg xmlns="http://www.w3.org/2000/svg" xml:space="preserve" viewBox="0 0 2048 2048">
  <style>
    path {fill: #000000;}
    @media (prefers-color-scheme: dark) {
      :root {filter: invert(100%);}
    }
  </style>
  <path d="M428 1434a171 171 0 0 1 122 293 171 171 0 0 1-294-121 171 171 0 0 1 172-172zm1055-98a134 134 0 0 1 95 230 134 134 0 0 1-230-95 134 134 0 0 1 135-135zM929 806a216 216 0 0 1 154 371 216 216 0 0 1-371-154 216 216 0 0 1 217-217zM428 270a171 171 0 0 1 122 294 171 171 0 0 1-294-122 171 171 0 0 1 172-172z"/>
  <path d="m500 1486 289-340a48 48 0 1 1 73 62l-290 340a48 48 0 0 1-67 5 48 48 0 0 1-5-67zm273-576L499 559a48 48 0 0 1 76-59l274 351a48 48 0 0 1-76 59z"/>
  <path d="M1620 270a171 171 0 0 1 122 294 171 171 0 0 1-294-122 171 171 0 0 1 172-172z"/>
  <path d="m1549 561-461 363a48 48 0 0 1-59-75l460-363a48 48 0 0 1 60 75zm-184 893-325-275a48 48 0 0 1-6-68c17-20 47-22 68-5l325 275c21 17 23 47 6 67a48 48 0 0 1-68 6z"/>
</svg>
